# xmcd
#
# Track frame offsets:
#	150
#	22091
#	39484
#	66175
#	84319
#	98272
#	112727
#	133893
#	150338
#	166738
#	182479
#	203448
#	228123
#
# Disc length: 3539 seconds
#
# Revision: 1
# Processed by: cddbd v1.5.2PL0 Copyright (c) Steve Scherf et al.
# Submitted via: audiograbber 1.83.01
#
DISCID=8a0dd10d
DTITLE=Quinn Sullivan - Midnight Highway
DYEAR=2017
DGENRE=Rock
TTITLE0=Something For Me
TTITLE1=Tell Me I'm Not Dreaming
TTITLE2=Midnight Highway
TTITLE3=Crazy Into You
TTITLE4=Eyes For You
TTITLE5=Lifting Off
TTITLE6=She Gets Me
TTITLE7=Rocks (Bonus Track)
TTITLE8=Going
TTITLE9=Graveyard Stone (Bonus Track)
TTITLE10=Big Sky (Bonus Track)
TTITLE11=While My Guitar Gently Weeps
TTITLE12=Buffalo Nickel
EXTD=
EXTT0=
EXTT1=
EXTT2=
EXTT3=
EXTT4=
EXTT5=
EXTT6=
EXTT7=
EXTT8=
EXTT9=
EXTT10=
EXTT11=
EXTT12=
PLAYORDER=
